<?xml version="1.0" standalone="no"?>
<!DOCTYPE svg PUBLIC "-//W3C//DTD SVG 20010904//EN"
 "http://www.w3.org/TR/2001/REC-SVG-20010904/DTD/svg10.dtd">
<svg version="1.0" xmlns="http://www.w3.org/2000/svg"
 width="512.000000pt" height="512.000000pt" viewBox="0 0 512.000000 512.000000"
 preserveAspectRatio="xMidYMid meet">

<g transform="translate(0.000000,512.000000) scale(0.100000,-0.100000)"
fill="#000000" stroke="none">
<path d="M3237 4946 c-4 -44 -7 -115 -7 -160 -1 -153 -22 -204 -100 -243 l-44
-23 -576 0 c-374 0 -570 -4 -560 -10 8 -5 36 -13 63 -16 37 -5 47 -11 47 -25
0 -18 17 -19 443 -19 401 0 445 -2 477 -18 19 -9 39 -27 45 -39 15 -36 23 -28
36 36 l11 59 49 6 c61 8 114 52 129 104 11 42 12 377 1 407 -5 13 -10 -7 -14
-59z"/>
<path d="M2245 4230 c11 -5 44 -9 73 -9 l52 -1 0 -87 0 -88 190 0 190 0 0 88
0 87 53 1 c28 1 63 5 77 9 14 4 -128 8 -315 8 -198 0 -332 -3 -320 -8z"/>
<path d="M924 3668 c-124 -120 -124 -146 -8 -268 l75 -78 135 136 135 137 -80
78 c-77 74 -82 77 -127 77 -45 0 -50 -3 -130 -82z"/>
<path d="M3939 3672 l-81 -77 136 -136 135 -136 74 76 c118 121 117 149 -7
269 -80 79 -85 82 -130 82 -45 0 -50 -3 -127 -78z"/>
<path d="M2560 3527 c0 -62 -2 -67 -27 -79 -21 -10 -36 -37 -75 -137 l-48
-123 30 -428 c16 -235 30 -434 30 -442 0 -13 7 -14 45 -6 89 19 201 -24 269
-103 35 -42 66 -114 66 -156 l0 -23 438 -2 c623 -4 831 -3 839 5 12 13 -16
259 -42 365 -45 184 -117 348 -226 513 -81 121 -281 322 -404 406 -241 162
-511 256 -782 270 l-113 6 0 -66z"/>
<path d="M3965 618 c-239 -240 -261 -269 -135 -169 72 57 228 210 289 286 64
80 113 145 109 145 -2 0 -120 -118 -263 -262z"/>
</g>
</svg>
